#!OML:ASF E:/inclinewalkrobotboard/Project1/Captureday1/Session1/subject1.ASF
:FULLY-SPECIFIED
:DEGREES
188
root 0 0 0 2.0097542160849744 -10.981722493528132 1.0371749350694506
lowerback -0.41764859973232005 -1.7886318723624048 -2.820988322657517
upperback -0.457199078117696 -2.351955931474975 1.7536996221591599
thorax -0.032775079824563624 -1.1649909875663493 3.33866263485888
lowerneck -25.95100390546812 -1.8181189194357592 -8.031414380894006
upperneck 26.31825515422998 0.08761641145185661 2.4723189191883748
head 13.129007427306025 -0.5594992001206787 2.3901543597580424
rclavicle 3.053136683029382E-15 -1.0908083742433753E-15
rhumerus -33.89686901635304 -3.7571072661964244 -78.40828284989317
rradius 28.715972079703384
rwrist 20.403240793358133
rhand -17.59516099222861 8.949331874676636
rfingers 7.125019999999934
rthumb 8.657121133737483 -20.833313607213807
lclavicle 2.3219691590577746E-15 4.115070547913438E-16
lhumerus -20.66016135260514 -8.572401255036455 91.24288234788682
lradius 66.66860438752119
lwrist 3.155539915140729
lhand -28.66813018435318 22.32764765979735
lfingers 7.125020000000022
lthumb -2.051336413988496 52.37532952731669
rfemur -33.038312052219005 4.405393925801848 17.570761721740812
rtibia 26.64052179323871
rfoot -6.905232426495852 -13.158651916221634
rtoes -3.8571864601081645
lfemur 16.4996482856896 -3.265735080339793 -31.254321366366312
ltibia 19.960279050309317
lfoot -17.018044188115493 -4.5125335192559755
ltoes -6.440199843515725
189
root 0 0 0 1.9796040163374375 -10.924689824575587 1.094111563581242
lowerback -0.2969204070783742 -1.776800513493351 -2.785301164363133
upperback -0.4941392015487467 -2.3401074218249223 1.8985526109513928
thorax -0.1328069343345476 -1.1573151053127675 3.4692784998352395
lowerneck -26.892339754144928 -1.8998810849095364 -7.8416023326669935
upperneck 24.598266435997232 0.01955921614630929 2.5594891261766337
head 12.696267124766656 -0.5407729911250659 2.3680038615469616
rclavicle 3.641745590433842E-15 -1.8668695478022288E-15
rhumerus -34.02522989157265 -2.7477803841181494 -77.86036042014149
rradius 28.39641850857531
rwrist 20.36293228880349
rhand -17.781458144121295 9.035598925494948
rfingers 7.125019999999936
rthumb 8.477354409786482 -20.758737907579405
lclavicle 2.7298902548794524E-15 3.733225671255772E-16
lhumerus -20.30628318859099 -9.777702932762086 91.0069002548683
lradius 67.25902542729912
lwrist 3.605436801871997
lhand -28.616258858760972 22.945850951782493
lfingers 7.125020000000018
lthumb -2.005654175463981 53.00914187750857
rfemur -34.018299675198776 5.440266833244258 18.514768832241977
rtibia 19.92091518905596
rfoot -7.175790067492551 -13.03131034580519
rtoes -3.485318936895723
lfemur 22.017530228253484 -3.6566367204775343 -28.300333755407593
ltibia 27.616357085687216
lfoot -8.23344915875344 -10.353654595108893
ltoes -15.410930543840845
190
root 0 0 0 1.9373774190511188 -10.84766713771669 1.0755424670754405
lowerback -0.14343368739993845 -1.7423238832154804 -2.712651030620736
upperback -0.5151904847172579 -2.296256787677337 2.0191142530661983
thorax -0.23971186976168424 -1.1344745666392855 3.5536453647857096
lowerneck -27.104174712367634 -1.8638375558162648 -7.669475833269966
upperneck 23.993232445468177 0.09083379811071002 2.4842821311076744
head 12.532832540178159 -0.5106756574233933 2.325388083496885
rclavicle 2.3565326162751593E-15 -2.237135384343624E-15
rhumerus -34.060514572215574 -2.452181333104003 -77.6896595112889
rradius 28.297467361074204
rwrist 20.362088384397826
rhand -17.820613355589817 9.055111831216806
rfingers 7.125019999999937
rthumb 8.439487104870489 -20.74394441643668
lclavicle 1.327170473066262E-15 8.70976930370285E-17
lhumerus -20.209298423007223 -9.870300262971991 90.8191016713838
lradius 67.27408255414741
lwrist 3.7601358968682024
lhand -28.490570039514445 22.98914261366307
lfingers 7.125020000000014
lthumb -1.8882133998873263 53.05963865089062
rfemur -35.22068480681598 6.102947036412391 20.44146357594307
rtibia 16.359132522984304
rfoot -5.577314541778543 -11.367967387946933
rtoes -0.19595749513120708
lfemur 15.861007176067936 -2.9359507128477156 -23.06517154613088
ltibia 37.28337915702515
lfoot 1.0105630523422473 -14.869063728797528
ltoes -18.299131520642476
191
root 0 0 0 1.8654935766037637 -10.7879095019691 0.9746386745624412
lowerback 2.325835521588271E-4 -1.6844737564916605 -2.598980877958949
upperback -0.5467418221574295 -2.218026521379112 2.0894296276091087
thorax -0.35864672441599177 -1.0948343113400385 3.56245697621728
lowerneck -26.504625872349443 -1.715228344834153 -7.52232253111176
upperneck 24.84700467044673 0.3080824611843922 2.188884077339209
head 12.760788754828605 -0.4858678779821993 2.2507237967129305
rclavicle 1.4361038636058868E-15 -2.609182647254125E-15
rhumerus -34.06187383021181 -2.7328723722656925 -77.71596806223405
rradius 28.270802079357093
rwrist 20.39870660476413
rhand -17.73487155123931 9.058752712942358
rfingers 7.125019999999935
rthumb 8.522067761336105 -20.731965021706596
lclavicle 5.60679822821044E-16 -2.469253195219898E-16
lhumerus -20.551418606455535 -8.717650068763595 90.81593234733349
lradius 66.7462357794283
lwrist 3.5231741667363976
lhand -28.33448184564769 22.504400502848615
lfingers 7.125020000000015
lthumb -1.7404537953520691 52.57279914584459
rfemur -27.81432316259569 7.2618209736275166 28.001468767773453
rtibia 14.583592140231405
rfoot -2.209778370272403 -8.478322177990888
rtoes 6.764657830757712
lfemur 4.759532972152786 -1.7363163703340705 -18.90663354902164
ltibia 44.35439784428952
lfoot 8.70109703535788 -15.578621835307814
ltoes -13.486225471923442
